# xmcd CD database file
#
# Track frame offsets:
#	150
#	16663
#	36267
#	58982
#	71221
#	103310
#	119053
#	135597
#	162091
#	182783
#	204077
#	221264
#	239392
#
# Disc length: 3520 seconds
#
# Revision: 0
# Processed by: cddbd v1.5.2PL0 Copyright (c) Steve Scherf et al.
# Submitted via: CDex 1.51
#
DISCID=bd0dbe0d
DTITLE=Gert Zimanowski - Emotionaut
DYEAR=2003
DGENRE=Jazz
TTITLE0=Somebody sings a song
TTITLE1=Ich liebe, ich liebe...
TTITLE2=Yesterday
TTITLE3=Hommage an Bach Nr. 4
TTITLE4=Ehrfurcht vor dem Leben
TTITLE5=Hommage an Bach Nr. 3
TTITLE6=Caravan of dreams
TTITLE7=Mei Lie
TTITLE8=The call
TTITLE9=Fremdes Gesicht 1
TTITLE10=Fremdes Gesicht 2
TTITLE11=Amazing Grace
TTITLE12=Golden sound
EXTD=YEAR: 2003
EXTT0=
EXTT1=
EXTT2=
EXTT3=
EXTT4=
EXTT5=
EXTT6=
EXTT7=
EXTT8=
EXTT9=
EXTT10=
EXTT11=
EXTT12=
PLAYORDER=
